<svg xmlns="http://www.w3.org/2000/svg" xmlns:xlink="http://www.w3.org/1999/xlink" width="500" zoomAndPan="magnify" viewBox="0 0 375 149.999998" height="200" preserveAspectRatio="xMidYMid meet" version="1.0"><defs><g/><clipPath id="6b1af25274"><rect x="0" width="124" y="0" height="150"/></clipPath><clipPath id="2da6a7e3c6"><rect x="0" width="183" y="0" height="150"/></clipPath><clipPath id="65b6b72ed4"><path d="M 105.652344 71.300781 L 124.558594 71.300781 L 124.558594 100.699219 L 105.652344 100.699219 Z M 105.652344 71.300781 " clip-rule="nonzero"/></clipPath><clipPath id="7b2151fc51"><path d="M 0.652344 0.300781 L 19.558594 0.300781 L 19.558594 29.699219 L 0.652344 29.699219 Z M 0.652344 0.300781 " clip-rule="nonzero"/></clipPath><clipPath id="46e3ba7b76"><rect x="0" width="20" y="0" height="30"/></clipPath><clipPath id="c94ea37964"><path d="M 294.863281 42.71875 L 317.421875 42.71875 L 317.421875 82.675781 L 294.863281 82.675781 Z M 294.863281 42.71875 " clip-rule="nonzero"/></clipPath><clipPath id="093eb77662"><path d="M 0.863281 0.71875 L 23.421875 0.71875 L 23.421875 40.675781 L 0.863281 40.675781 Z M 0.863281 0.71875 " clip-rule="nonzero"/></clipPath><clipPath id="41401d61f8"><rect x="0" width="24" y="0" height="41"/></clipPath><clipPath id="806684da85"><path d="M 111.789062 71.300781 L 137.328125 71.300781 L 137.328125 107.613281 L 111.789062 107.613281 Z M 111.789062 71.300781 " clip-rule="nonzero"/></clipPath><clipPath id="d106a8701e"><path d="M 121.269531 71.300781 L 137.328125 71.300781 L 127.847656 107.542969 L 111.789062 107.542969 Z M 121.269531 71.300781 " clip-rule="nonzero"/></clipPath><clipPath id="cb579d394d"><path d="M 0.789062 0.300781 L 26.328125 0.300781 L 26.328125 36.613281 L 0.789062 36.613281 Z M 0.789062 0.300781 " clip-rule="nonzero"/></clipPath><clipPath id="ee58f39fd3"><path d="M 10.269531 0.300781 L 26.328125 0.300781 L 16.847656 36.542969 L 0.789062 36.542969 Z M 10.269531 0.300781 " clip-rule="nonzero"/></clipPath><clipPath id="8de3d435ed"><rect x="0" width="27" y="0" height="37"/></clipPath><clipPath id="68033efd62"><path d="M 300.671875 42.71875 L 327.636719 42.71875 L 327.636719 82.742188 L 300.671875 82.742188 Z M 300.671875 42.71875 " clip-rule="nonzero"/></clipPath><clipPath id="048fef80a5"><path d="M 311.03125 42.71875 L 327.636719 42.71875 L 317.277344 82.675781 L 300.671875 82.675781 Z M 311.03125 42.71875 " clip-rule="nonzero"/></clipPath><clipPath id="29a0a2d0a4"><path d="M 0.671875 0.71875 L 27.636719 0.71875 L 27.636719 40.742188 L 0.671875 40.742188 Z M 0.671875 0.71875 " clip-rule="nonzero"/></clipPath><clipPath id="bb6eb61b87"><path d="M 11.03125 0.71875 L 27.636719 0.71875 L 17.277344 40.675781 L 0.671875 40.675781 Z M 11.03125 0.71875 " clip-rule="nonzero"/></clipPath><clipPath id="086b839330"><rect x="0" width="28" y="0" height="41"/></clipPath></defs><g transform="matrix(1, 0, 0, 1, 26, -0.000000000000007527)"><g clip-path="url(#6b1af25274)"><g fill="#1e1c1c" fill-opacity="1"><g transform="translate(2.059698, 104.240353)"><g><path d="M 38.140625 1.921875 C 31.554688 1.921875 25.816406 0.867188 20.921875 -1.234375 C 16.023438 -3.335938 12.226562 -6.265625 9.53125 -10.015625 C 6.832031 -13.765625 5.484375 -18.15625 5.484375 -23.1875 L 25.921875 -23.1875 C 26.015625 -20.257812 27.160156 -17.925781 29.359375 -16.1875 C 31.554688 -14.445312 34.570312 -13.578125 38.40625 -13.578125 C 41.695312 -13.578125 44.257812 -14.191406 46.09375 -15.421875 C 47.925781 -16.660156 48.84375 -18.332031 48.84375 -20.4375 C 48.84375 -22.726562 47.609375 -24.625 45.140625 -26.125 C 42.671875 -27.632812 38.644531 -28.847656 33.0625 -29.765625 C 23.914062 -31.410156 17.191406 -34.0625 12.890625 -37.71875 C 8.597656 -41.382812 6.453125 -46.1875 6.453125 -52.125 C 6.453125 -59.164062 9.078125 -64.5625 14.328125 -68.3125 C 19.585938 -72.0625 27.066406 -73.9375 36.765625 -73.9375 C 46.367188 -73.9375 53.890625 -71.878906 59.328125 -67.765625 C 64.773438 -63.648438 67.726562 -57.796875 68.1875 -50.203125 L 48.296875 -50.203125 C 48.109375 -52.953125 46.984375 -55.082031 44.921875 -56.59375 C 42.867188 -58.101562 40.101562 -58.859375 36.625 -58.859375 C 33.519531 -58.859375 31.070312 -58.257812 29.28125 -57.0625 C 27.5 -55.875 26.609375 -54.226562 26.609375 -52.125 C 26.609375 -49.9375 27.773438 -48.222656 30.109375 -46.984375 C 32.441406 -45.753906 36.671875 -44.5 42.796875 -43.21875 C 60.546875 -39.644531 69.421875 -32.003906 69.421875 -20.296875 C 69.421875 -13.441406 66.648438 -8.023438 61.109375 -4.046875 C 55.578125 -0.0664062 47.921875 1.921875 38.140625 1.921875 Z M 38.140625 1.921875 "/></g></g></g><g fill="#1e1c1c" fill-opacity="1"><g transform="translate(63.510956, 104.240353)"><g><path d="M 45.140625 0 C 35.992188 0 28.972656 -2.351562 24.078125 -7.0625 C 19.179688 -11.769531 16.734375 -18.515625 16.734375 -27.296875 L 16.734375 -55.015625 L 2.75 -55.015625 L 2.75 -72.015625 L 9.1875 -72.015625 C 13.125 -72.015625 15.800781 -72.65625 17.21875 -73.9375 C 18.632812 -75.21875 19.617188 -77.691406 20.171875 -81.359375 L 21.40625 -90.6875 L 37.59375 -90.6875 L 37.59375 -72.015625 L 57.34375 -72.015625 L 57.34375 -55.015625 L 37.59375 -55.015625 L 37.59375 -30.453125 C 37.59375 -22.222656 41.613281 -18.109375 49.65625 -18.109375 L 58.296875 -18.109375 L 58.296875 0 Z M 45.140625 0 "/></g></g></g></g></g><g transform="matrix(1, 0, 0, 1, 136, -0.000000000000007527)"><g clip-path="url(#2da6a7e3c6)"><g fill="#1e1c1c" fill-opacity="1"><g transform="translate(1.95159, 106.564016)"><g><path d="M 34.4375 1.375 C 25.925781 1.375 19.203125 -0.613281 14.265625 -4.59375 C 9.328125 -8.570312 6.859375 -14.035156 6.859375 -20.984375 C 6.859375 -27.660156 9.078125 -32.988281 13.515625 -36.96875 C 17.953125 -40.945312 23.921875 -42.9375 31.421875 -42.9375 L 57.484375 -42.9375 L 57.484375 -46.234375 C 57.484375 -49.796875 56.203125 -52.648438 53.640625 -54.796875 C 51.078125 -56.953125 47.738281 -58.03125 43.625 -58.03125 C 40.238281 -58.03125 37.359375 -57.25 34.984375 -55.6875 C 32.609375 -54.132812 31.097656 -52.082031 30.453125 -49.53125 L 10.421875 -49.53125 C 11.703125 -57.394531 15.242188 -63.425781 21.046875 -67.625 C 26.859375 -71.832031 34.335938 -73.9375 43.484375 -73.9375 C 54.273438 -73.9375 62.710938 -71.21875 68.796875 -65.78125 C 74.878906 -60.34375 77.921875 -52.863281 77.921875 -43.34375 L 77.921875 0 L 62.421875 0 L 60.09375 -8.375 C 53.78125 -1.875 45.226562 1.375 34.4375 1.375 Z M 27.4375 -21.8125 C 27.4375 -19.34375 28.507812 -17.351562 30.65625 -15.84375 C 32.8125 -14.332031 35.671875 -13.578125 39.234375 -13.578125 C 44.453125 -13.578125 48.773438 -15.085938 52.203125 -18.109375 C 55.628906 -21.128906 57.4375 -25.0625 57.625 -29.90625 L 37.859375 -29.90625 C 34.753906 -29.90625 32.238281 -29.171875 30.3125 -27.703125 C 28.394531 -26.242188 27.4375 -24.28125 27.4375 -21.8125 Z M 27.4375 -21.8125 "/></g></g></g><g fill="#1e1c1c" fill-opacity="1"><g transform="translate(75.336841, 106.564016)"><g><path d="M 34.4375 1.375 C 25.925781 1.375 19.203125 -0.613281 14.265625 -4.59375 C 9.328125 -8.570312 6.859375 -14.035156 6.859375 -20.984375 C 6.859375 -27.660156 9.078125 -32.988281 13.515625 -36.96875 C 17.953125 -40.945312 23.921875 -42.9375 31.421875 -42.9375 L 57.484375 -42.9375 L 57.484375 -46.234375 C 57.484375 -49.796875 56.203125 -52.648438 53.640625 -54.796875 C 51.078125 -56.953125 47.738281 -58.03125 43.625 -58.03125 C 40.238281 -58.03125 37.359375 -57.25 34.984375 -55.6875 C 32.609375 -54.132812 31.097656 -52.082031 30.453125 -49.53125 L 10.421875 -49.53125 C 11.703125 -57.394531 15.242188 -63.425781 21.046875 -67.625 C 26.859375 -71.832031 34.335938 -73.9375 43.484375 -73.9375 C 54.273438 -73.9375 62.710938 -71.21875 68.796875 -65.78125 C 74.878906 -60.34375 77.921875 -52.863281 77.921875 -43.34375 L 77.921875 0 L 62.421875 0 L 60.09375 -8.375 C 53.78125 -1.875 45.226562 1.375 34.4375 1.375 Z M 27.4375 -21.8125 C 27.4375 -19.34375 28.507812 -17.351562 30.65625 -15.84375 C 32.8125 -14.332031 35.671875 -13.578125 39.234375 -13.578125 C 44.453125 -13.578125 48.773438 -15.085938 52.203125 -18.109375 C 55.628906 -21.128906 57.4375 -25.0625 57.625 -29.90625 L 37.859375 -29.90625 C 34.753906 -29.90625 32.238281 -29.171875 30.3125 -27.703125 C 28.394531 -26.242188 27.4375 -24.28125 27.4375 -21.8125 Z M 27.4375 -21.8125 "/></g></g></g><g fill="#1e1c1c" fill-opacity="1"><g transform="translate(148.722092, 106.564016)"><g><path d="M 10.421875 0 L 10.421875 -101.515625 L 31.28125 -101.515625 L 31.28125 0 Z M 10.421875 0 "/></g></g></g></g></g><g clip-path="url(#65b6b72ed4)"><g transform="matrix(1, 0, 0, 1, 105, 71)"><g clip-path="url(#46e3ba7b76)"><g clip-path="url(#7b2151fc51)"><path fill="#ffffff" d="M 0.652344 0.300781 L 19.558594 0.300781 L 19.558594 29.691406 L 0.652344 29.691406 Z M 0.652344 0.300781 " fill-opacity="1" fill-rule="nonzero"/></g></g></g></g><g clip-path="url(#c94ea37964)"><g transform="matrix(1, 0, 0, 1, 294, 42)"><g clip-path="url(#41401d61f8)"><g clip-path="url(#093eb77662)"><path fill="#ffffff" d="M 0.863281 0.71875 L 23.421875 0.71875 L 23.421875 40.71875 L 0.863281 40.71875 Z M 0.863281 0.71875 " fill-opacity="1" fill-rule="nonzero"/></g></g></g></g><g clip-path="url(#806684da85)"><g clip-path="url(#d106a8701e)"><g transform="matrix(1, 0, 0, 1, 111, 71)"><g clip-path="url(#8de3d435ed)"><g clip-path="url(#cb579d394d)"><g clip-path="url(#ee58f39fd3)"><path fill="#4b58ff" d="M 0.789062 0.300781 L 26.328125 0.300781 L 26.328125 36.515625 L 0.789062 36.515625 Z M 0.789062 0.300781 " fill-opacity="1" fill-rule="nonzero"/></g></g></g></g></g></g><g clip-path="url(#68033efd62)"><g clip-path="url(#048fef80a5)"><g transform="matrix(1, 0, 0, 1, 300, 42)"><g clip-path="url(#086b839330)"><g clip-path="url(#29a0a2d0a4)"><g clip-path="url(#bb6eb61b87)"><path fill="#4b58ff" d="M 0.671875 0.71875 L 27.636719 0.71875 L 27.636719 40.636719 L 0.671875 40.636719 Z M 0.671875 0.71875 " fill-opacity="1" fill-rule="nonzero"/></g></g></g></g></g></g><g fill="#4b58ff" fill-opacity="1"><g transform="translate(112.823661, 142.595077)"><g><path d="M 0.765625 -10.203125 L 0.765625 -11.4375 L 9.328125 -11.4375 L 9.328125 -10.203125 L 5.734375 -10.203125 L 5.734375 0 L 4.359375 0 L 4.359375 -10.203125 Z M 0.765625 -10.203125 "/></g></g></g><g fill="#4b58ff" fill-opacity="1"><g transform="translate(133.136271, 142.595077)"><g><path d="M 8.890625 -11.4375 L 10.265625 -11.4375 L 10.265625 -3.859375 C 10.265625 -3.003906 10.0625 -2.273438 9.65625 -1.671875 C 9.25 -1.066406 8.707031 -0.601562 8.03125 -0.28125 C 7.363281 0.0390625 6.628906 0.203125 5.828125 0.203125 C 5.023438 0.203125 4.285156 0.0390625 3.609375 -0.28125 C 2.929688 -0.601562 2.390625 -1.066406 1.984375 -1.671875 C 1.585938 -2.273438 1.390625 -3.003906 1.390625 -3.859375 L 1.390625 -11.4375 L 2.765625 -11.4375 L 2.765625 -3.859375 C 2.765625 -3.265625 2.90625 -2.757812 3.1875 -2.34375 C 3.46875 -1.9375 3.84375 -1.625 4.3125 -1.40625 C 4.78125 -1.195312 5.285156 -1.09375 5.828125 -1.09375 C 6.367188 -1.09375 6.867188 -1.195312 7.328125 -1.40625 C 7.796875 -1.625 8.171875 -1.9375 8.453125 -2.34375 C 8.742188 -2.757812 8.890625 -3.265625 8.890625 -3.859375 Z M 8.890625 -11.4375 "/></g></g></g><g fill="#4b58ff" fill-opacity="1"><g transform="translate(155.010255, 142.595077)"><g><path d="M 0.765625 -10.203125 L 0.765625 -11.4375 L 9.328125 -11.4375 L 9.328125 -10.203125 L 5.734375 -10.203125 L 5.734375 0 L 4.359375 0 L 4.359375 -10.203125 Z M 0.765625 -10.203125 "/></g></g></g><g fill="#4b58ff" fill-opacity="1"><g transform="translate(175.322864, 142.595077)"><g><path d="M 11.03125 -5.71875 C 11.03125 -4.507812 10.8125 -3.460938 10.375 -2.578125 C 9.9375 -1.703125 9.335938 -1.023438 8.578125 -0.546875 C 7.828125 -0.078125 6.960938 0.15625 5.984375 0.15625 C 5.003906 0.15625 4.132812 -0.078125 3.375 -0.546875 C 2.625 -1.023438 2.03125 -1.703125 1.59375 -2.578125 C 1.15625 -3.460938 0.9375 -4.507812 0.9375 -5.71875 C 0.9375 -6.925781 1.15625 -7.96875 1.59375 -8.84375 C 2.03125 -9.71875 2.625 -10.394531 3.375 -10.875 C 4.132812 -11.351562 5.003906 -11.59375 5.984375 -11.59375 C 6.960938 -11.59375 7.828125 -11.351562 8.578125 -10.875 C 9.335938 -10.394531 9.9375 -9.71875 10.375 -8.84375 C 10.8125 -7.96875 11.03125 -6.925781 11.03125 -5.71875 Z M 9.6875 -5.71875 C 9.6875 -6.707031 9.519531 -7.539062 9.1875 -8.21875 C 8.863281 -8.90625 8.421875 -9.421875 7.859375 -9.765625 C 7.296875 -10.117188 6.671875 -10.296875 5.984375 -10.296875 C 5.296875 -10.296875 4.671875 -10.117188 4.109375 -9.765625 C 3.546875 -9.421875 3.097656 -8.90625 2.765625 -8.21875 C 2.441406 -7.539062 2.28125 -6.707031 2.28125 -5.71875 C 2.28125 -4.726562 2.441406 -3.890625 2.765625 -3.203125 C 3.097656 -2.523438 3.546875 -2.007812 4.109375 -1.65625 C 4.671875 -1.3125 5.296875 -1.140625 5.984375 -1.140625 C 6.671875 -1.140625 7.296875 -1.3125 7.859375 -1.65625 C 8.421875 -2.007812 8.863281 -2.523438 9.1875 -3.203125 C 9.519531 -3.890625 9.6875 -4.726562 9.6875 -5.71875 Z M 9.6875 -5.71875 "/></g></g></g><g fill="#4b58ff" fill-opacity="1"><g transform="translate(197.509123, 142.595077)"><g><path d="M 1.390625 0 L 1.390625 -11.4375 L 5.25 -11.4375 C 6.144531 -11.4375 6.878906 -11.28125 7.453125 -10.96875 C 8.023438 -10.664062 8.445312 -10.25 8.71875 -9.71875 C 8.988281 -9.195312 9.125 -8.597656 9.125 -7.921875 C 9.125 -7.160156 8.953125 -6.5 8.609375 -5.9375 C 8.265625 -5.375 7.726562 -4.96875 7 -4.71875 L 9.578125 0 L 7.96875 0 L 5.5625 -4.46875 C 5.46875 -4.46875 5.367188 -4.46875 5.265625 -4.46875 L 2.765625 -4.46875 L 2.765625 0 Z M 2.765625 -5.71875 L 5.21875 -5.71875 C 6.132812 -5.71875 6.785156 -5.914062 7.171875 -6.3125 C 7.566406 -6.707031 7.765625 -7.242188 7.765625 -7.921875 C 7.765625 -8.609375 7.566406 -9.160156 7.171875 -9.578125 C 6.785156 -9.992188 6.128906 -10.203125 5.203125 -10.203125 L 2.765625 -10.203125 Z M 2.765625 -5.71875 "/></g></g></g><g fill="#4b58ff" fill-opacity="1"><g transform="translate(217.777124, 142.595077)"><g><path d="M 2.765625 -11.4375 L 2.765625 0 L 1.390625 0 L 1.390625 -11.4375 Z M 2.765625 -11.4375 "/></g></g></g><g fill="#4b58ff" fill-opacity="1"><g transform="translate(232.156544, 142.595077)"><g><path d="M 10.453125 -11.4375 L 10.453125 0 L 9.109375 0 L 2.875 -8.96875 L 2.765625 -8.96875 L 2.765625 0 L 1.390625 0 L 1.390625 -11.4375 L 2.71875 -11.4375 L 8.96875 -2.4375 L 9.09375 -2.4375 L 9.09375 -11.4375 Z M 10.453125 -11.4375 "/></g></g></g><g fill="#4b58ff" fill-opacity="1"><g transform="translate(254.208965, 142.595077)"><g><path d="M 9.203125 -7.859375 C 8.960938 -8.609375 8.5625 -9.203125 8 -9.640625 C 7.445312 -10.078125 6.757812 -10.296875 5.9375 -10.296875 C 5.257812 -10.296875 4.644531 -10.117188 4.09375 -9.765625 C 3.539062 -9.421875 3.097656 -8.90625 2.765625 -8.21875 C 2.441406 -7.539062 2.28125 -6.707031 2.28125 -5.71875 C 2.28125 -4.726562 2.441406 -3.890625 2.765625 -3.203125 C 3.097656 -2.523438 3.546875 -2.007812 4.109375 -1.65625 C 4.679688 -1.3125 5.320312 -1.140625 6.03125 -1.140625 C 6.675781 -1.140625 7.242188 -1.273438 7.734375 -1.546875 C 8.234375 -1.816406 8.625 -2.203125 8.90625 -2.703125 C 9.1875 -3.203125 9.335938 -3.796875 9.359375 -4.484375 L 6.34375 -4.484375 L 6.34375 -5.71875 L 10.6875 -5.71875 L 10.6875 -4.484375 C 10.6875 -3.546875 10.488281 -2.726562 10.09375 -2.03125 C 9.695312 -1.332031 9.144531 -0.789062 8.4375 -0.40625 C 7.738281 -0.03125 6.9375 0.15625 6.03125 0.15625 C 5.019531 0.15625 4.128906 -0.078125 3.359375 -0.546875 C 2.597656 -1.023438 2.003906 -1.703125 1.578125 -2.578125 C 1.148438 -3.460938 0.9375 -4.507812 0.9375 -5.71875 C 0.9375 -6.925781 1.148438 -7.96875 1.578125 -8.84375 C 2.003906 -9.71875 2.59375 -10.394531 3.34375 -10.875 C 4.101562 -11.351562 4.96875 -11.59375 5.9375 -11.59375 C 6.738281 -11.59375 7.46875 -11.429688 8.125 -11.109375 C 8.78125 -10.796875 9.328125 -10.359375 9.765625 -9.796875 C 10.203125 -9.242188 10.488281 -8.597656 10.625 -7.859375 Z M 9.203125 -7.859375 "/></g></g></g></svg>