<svg xmlns="http://www.w3.org/2000/svg" xmlns:xlink="http://www.w3.org/1999/xlink" width="1200" zoomAndPan="magnify" viewBox="0 0 900 472.499986" height="630" preserveAspectRatio="xMidYMid meet" version="1.0"><defs><g/><clipPath id="cc1165d69b"><path d="M 0.476562 0 L 899.523438 0 L 899.523438 472 L 0.476562 472 Z M 0.476562 0 " clip-rule="nonzero"/></clipPath><clipPath id="83b91ec26a"><rect x="0" width="296" y="0" height="432"/></clipPath><clipPath id="54c6261442"><rect x="0" width="437" y="0" height="437"/></clipPath><clipPath id="db8fa979ec"><path d="M 253.777344 227.128906 L 299.101562 227.128906 L 299.101562 297.613281 L 253.777344 297.613281 Z M 253.777344 227.128906 " clip-rule="nonzero"/></clipPath><clipPath id="ab12cd8618"><path d="M 0.777344 0.128906 L 46.101562 0.128906 L 46.101562 70.613281 L 0.777344 70.613281 Z M 0.777344 0.128906 " clip-rule="nonzero"/></clipPath><clipPath id="54c6e67a46"><rect x="0" width="47" y="0" height="71"/></clipPath><clipPath id="268efd31a7"><path d="M 707.402344 158.605469 L 761.480469 158.605469 L 761.480469 254.402344 L 707.402344 254.402344 Z M 707.402344 158.605469 " clip-rule="nonzero"/></clipPath><clipPath id="9e935a5313"><path d="M 0.402344 0.605469 L 54.480469 0.605469 L 54.480469 96.402344 L 0.402344 96.402344 Z M 0.402344 0.605469 " clip-rule="nonzero"/></clipPath><clipPath id="3b3dc34076"><rect x="0" width="55" y="0" height="97"/></clipPath><clipPath id="544a779fb9"><path d="M 268.484375 227.128906 L 329.714844 227.128906 L 329.714844 314.191406 L 268.484375 314.191406 Z M 268.484375 227.128906 " clip-rule="nonzero"/></clipPath><clipPath id="b42e27fefb"><path d="M 291.214844 227.128906 L 329.714844 227.128906 L 306.984375 314.015625 L 268.484375 314.015625 Z M 291.214844 227.128906 " clip-rule="nonzero"/></clipPath><clipPath id="f99eda2ca1"><path d="M 0.484375 0.128906 L 61.714844 0.128906 L 61.714844 87 L 0.484375 87 Z M 0.484375 0.128906 " clip-rule="nonzero"/></clipPath><clipPath id="5521a3f497"><path d="M 23.214844 0.128906 L 61.714844 0.128906 L 38.984375 87.015625 L 0.484375 87.015625 Z M 23.214844 0.128906 " clip-rule="nonzero"/></clipPath><clipPath id="d61adcd5b1"><rect x="0" width="62" y="0" height="88"/></clipPath><clipPath id="9a5da80f39"><path d="M 721.328125 158.605469 L 785.96875 158.605469 L 785.96875 254.558594 L 721.328125 254.558594 Z M 721.328125 158.605469 " clip-rule="nonzero"/></clipPath><clipPath id="9e7c7ad46c"><path d="M 746.160156 158.605469 L 785.96875 158.605469 L 761.136719 254.402344 L 721.328125 254.402344 Z M 746.160156 158.605469 " clip-rule="nonzero"/></clipPath><clipPath id="71baaf86e0"><path d="M 0.328125 0.605469 L 64.96875 0.605469 L 64.96875 96.558594 L 0.328125 96.558594 Z M 0.328125 0.605469 " clip-rule="nonzero"/></clipPath><clipPath id="2c4e522671"><path d="M 25.160156 0.605469 L 64.96875 0.605469 L 40.136719 96.402344 L 0.328125 96.402344 Z M 25.160156 0.605469 " clip-rule="nonzero"/></clipPath><clipPath id="5fe66ef8b1"><rect x="0" width="65" y="0" height="97"/></clipPath><clipPath id="b97b8b6f36"><rect x="0" width="395" y="0" height="46"/></clipPath></defs><g clip-path="url(#cc1165d69b)"><path fill="#ffffff" d="M 0.476562 0 L 899.523438 0 L 899.523438 472 L 0.476562 472 Z M 0.476562 0 " fill-opacity="1" fill-rule="nonzero"/><path fill="#ffffff" d="M 0.476562 0 L 899.523438 0 L 899.523438 472 L 0.476562 472 Z M 0.476562 0 " fill-opacity="1" fill-rule="nonzero"/></g><g transform="matrix(1, 0, 0, 1, 64, 0)"><g clip-path="url(#83b91ec26a)"><g fill="#1e1c1c" fill-opacity="1"><g transform="translate(3.74778, 306.102917)"><g><path d="M 91.4375 4.609375 C 75.644531 4.609375 61.882812 2.085938 50.15625 -2.953125 C 38.425781 -8.003906 29.328125 -15.023438 22.859375 -24.015625 C 16.390625 -33.003906 13.15625 -43.523438 13.15625 -55.578125 L 62.15625 -55.578125 C 62.382812 -48.566406 65.128906 -42.976562 70.390625 -38.8125 C 75.648438 -34.644531 82.882812 -32.5625 92.09375 -32.5625 C 99.988281 -32.5625 106.128906 -34.039062 110.515625 -37 C 114.898438 -39.957031 117.09375 -43.957031 117.09375 -49 C 117.09375 -54.488281 114.128906 -59.039062 108.203125 -62.65625 C 102.285156 -66.269531 92.640625 -69.175781 79.265625 -71.375 C 57.335938 -75.320312 41.21875 -81.679688 30.90625 -90.453125 C 20.601562 -99.222656 15.453125 -110.734375 15.453125 -124.984375 C 15.453125 -141.867188 21.753906 -154.804688 34.359375 -163.796875 C 46.972656 -172.785156 64.898438 -177.28125 88.140625 -177.28125 C 111.171875 -177.28125 129.207031 -172.34375 142.25 -162.46875 C 155.300781 -152.601562 162.375 -138.570312 163.46875 -120.375 L 115.78125 -120.375 C 115.34375 -126.957031 112.65625 -132.054688 107.71875 -135.671875 C 102.78125 -139.285156 96.144531 -141.09375 87.8125 -141.09375 C 80.363281 -141.09375 74.5 -139.664062 70.21875 -136.8125 C 65.945312 -133.96875 63.8125 -130.023438 63.8125 -124.984375 C 63.8125 -119.722656 66.601562 -115.609375 72.1875 -112.640625 C 77.78125 -109.679688 87.925781 -106.671875 102.625 -103.609375 C 145.15625 -95.054688 166.421875 -76.742188 166.421875 -48.671875 C 166.421875 -32.234375 159.785156 -19.242188 146.515625 -9.703125 C 133.253906 -0.160156 114.894531 4.609375 91.4375 4.609375 Z M 91.4375 4.609375 "/></g></g></g><g fill="#1e1c1c" fill-opacity="1"><g transform="translate(151.074896, 306.102917)"><g><path d="M 108.203125 0 C 86.273438 0 69.445312 -5.644531 57.71875 -16.9375 C 45.988281 -28.226562 40.125 -44.398438 40.125 -65.453125 L 40.125 -131.890625 L 6.578125 -131.890625 L 6.578125 -172.671875 L 22.03125 -172.671875 C 31.46875 -172.671875 37.882812 -174.207031 41.28125 -177.28125 C 44.675781 -180.351562 47.03125 -186.273438 48.34375 -195.046875 L 51.3125 -217.40625 L 90.125 -217.40625 L 90.125 -172.671875 L 137.484375 -172.671875 L 137.484375 -131.890625 L 90.125 -131.890625 L 90.125 -73.015625 C 90.125 -53.285156 99.769531 -43.421875 119.0625 -43.421875 L 139.78125 -43.421875 L 139.78125 0 Z M 108.203125 0 "/></g></g></g></g></g><g transform="matrix(1, 0, 0, 1, 327, 0)"><g clip-path="url(#54c6261442)"><g fill="#1e1c1c" fill-opacity="1"><g transform="translate(4.209487, 311.673812)"><g><path d="M 82.5625 3.296875 C 62.164062 3.296875 46.046875 -1.472656 34.203125 -11.015625 C 22.367188 -20.554688 16.453125 -33.660156 16.453125 -50.328125 C 16.453125 -66.328125 21.765625 -79.097656 32.390625 -88.640625 C 43.023438 -98.179688 57.332031 -102.953125 75.3125 -102.953125 L 137.8125 -102.953125 L 137.8125 -110.84375 C 137.8125 -119.394531 134.738281 -126.242188 128.59375 -131.390625 C 122.457031 -136.546875 114.457031 -139.125 104.59375 -139.125 C 96.476562 -139.125 89.566406 -137.257812 83.859375 -133.53125 C 78.160156 -129.800781 74.546875 -124.867188 73.015625 -118.734375 L 25 -118.734375 C 28.070312 -137.585938 36.566406 -152.054688 50.484375 -162.140625 C 64.410156 -172.234375 82.335938 -177.28125 104.265625 -177.28125 C 130.140625 -177.28125 150.363281 -170.753906 164.9375 -157.703125 C 179.519531 -144.660156 186.8125 -126.738281 186.8125 -103.9375 L 186.8125 0 L 149.65625 0 L 144.0625 -20.0625 C 128.925781 -4.488281 108.425781 3.296875 82.5625 3.296875 Z M 65.78125 -52.296875 C 65.78125 -46.378906 68.351562 -41.609375 73.5 -37.984375 C 78.65625 -34.367188 85.507812 -32.5625 94.0625 -32.5625 C 106.5625 -32.5625 116.921875 -36.175781 125.140625 -43.40625 C 133.367188 -50.644531 137.703125 -60.078125 138.140625 -71.703125 L 90.78125 -71.703125 C 83.320312 -71.703125 77.289062 -69.945312 72.6875 -66.4375 C 68.082031 -62.925781 65.78125 -58.210938 65.78125 -52.296875 Z M 65.78125 -52.296875 "/></g></g></g><g fill="#1e1c1c" fill-opacity="1"><g transform="translate(180.14791, 311.673812)"><g><path d="M 82.5625 3.296875 C 62.164062 3.296875 46.046875 -1.472656 34.203125 -11.015625 C 22.367188 -20.554688 16.453125 -33.660156 16.453125 -50.328125 C 16.453125 -66.328125 21.765625 -79.097656 32.390625 -88.640625 C 43.023438 -98.179688 57.332031 -102.953125 75.3125 -102.953125 L 137.8125 -102.953125 L 137.8125 -110.84375 C 137.8125 -119.394531 134.738281 -126.242188 128.59375 -131.390625 C 122.457031 -136.546875 114.457031 -139.125 104.59375 -139.125 C 96.476562 -139.125 89.566406 -137.257812 83.859375 -133.53125 C 78.160156 -129.800781 74.546875 -124.867188 73.015625 -118.734375 L 25 -118.734375 C 28.070312 -137.585938 36.566406 -152.054688 50.484375 -162.140625 C 64.410156 -172.234375 82.335938 -177.28125 104.265625 -177.28125 C 130.140625 -177.28125 150.363281 -170.753906 164.9375 -157.703125 C 179.519531 -144.660156 186.8125 -126.738281 186.8125 -103.9375 L 186.8125 0 L 149.65625 0 L 144.0625 -20.0625 C 128.925781 -4.488281 108.425781 3.296875 82.5625 3.296875 Z M 65.78125 -52.296875 C 65.78125 -46.378906 68.351562 -41.609375 73.5 -37.984375 C 78.65625 -34.367188 85.507812 -32.5625 94.0625 -32.5625 C 106.5625 -32.5625 116.921875 -36.175781 125.140625 -43.40625 C 133.367188 -50.644531 137.703125 -60.078125 138.140625 -71.703125 L 90.78125 -71.703125 C 83.320312 -71.703125 77.289062 -69.945312 72.6875 -66.4375 C 68.082031 -62.925781 65.78125 -58.210938 65.78125 -52.296875 Z M 65.78125 -52.296875 "/></g></g></g><g fill="#1e1c1c" fill-opacity="1"><g transform="translate(356.086333, 311.673812)"><g><path d="M 25 0 L 25 -243.390625 L 74.984375 -243.390625 L 74.984375 0 Z M 25 0 "/></g></g></g></g></g><g clip-path="url(#db8fa979ec)"><g transform="matrix(1, 0, 0, 1, 253, 227)"><g clip-path="url(#54c6e67a46)"><g clip-path="url(#ab12cd8618)"><path fill="#ffffff" d="M 0.777344 0.128906 L 46.101562 0.128906 L 46.101562 70.589844 L 0.777344 70.589844 Z M 0.777344 0.128906 " fill-opacity="1" fill-rule="nonzero"/></g></g></g></g><g clip-path="url(#268efd31a7)"><g transform="matrix(1, 0, 0, 1, 707, 158)"><g clip-path="url(#3b3dc34076)"><g clip-path="url(#9e935a5313)"><path fill="#ffffff" d="M 0.402344 0.605469 L 54.480469 0.605469 L 54.480469 96.507812 L 0.402344 96.507812 Z M 0.402344 0.605469 " fill-opacity="1" fill-rule="nonzero"/></g></g></g></g><g clip-path="url(#544a779fb9)"><g clip-path="url(#b42e27fefb)"><g transform="matrix(1, 0, 0, 1, 268, 227)"><g clip-path="url(#d61adcd5b1)"><g clip-path="url(#f99eda2ca1)"><g clip-path="url(#5521a3f497)"><path fill="#4b58ff" d="M 0.484375 0.128906 L 61.714844 0.128906 L 61.714844 86.949219 L 0.484375 86.949219 Z M 0.484375 0.128906 " fill-opacity="1" fill-rule="nonzero"/></g></g></g></g></g></g><g clip-path="url(#9a5da80f39)"><g clip-path="url(#9e7c7ad46c)"><g transform="matrix(1, 0, 0, 1, 721, 158)"><g clip-path="url(#5fe66ef8b1)"><g clip-path="url(#71baaf86e0)"><g clip-path="url(#2c4e522671)"><path fill="#4b58ff" d="M 0.328125 0.605469 L 64.96875 0.605469 L 64.96875 96.304688 L 0.328125 96.304688 Z M 0.328125 0.605469 " fill-opacity="1" fill-rule="nonzero"/></g></g></g></g></g></g><g transform="matrix(1, 0, 0, 1, 269, 362)"><g clip-path="url(#b97b8b6f36)"><g fill="#4b58ff" fill-opacity="1"><g transform="translate(1.966265, 36.056943)"><g><path d="M 1.8125 -24.453125 L 1.8125 -27.390625 L 22.375 -27.390625 L 22.375 -24.453125 L 13.75 -24.453125 L 13.75 0 L 10.4375 0 L 10.4375 -24.453125 Z M 1.8125 -24.453125 "/></g></g></g><g fill="#4b58ff" fill-opacity="1"><g transform="translate(50.664997, 36.056943)"><g><path d="M 21.296875 -27.390625 L 24.609375 -27.390625 L 24.609375 -9.25 C 24.609375 -7.207031 24.125 -5.457031 23.15625 -4 C 22.1875 -2.539062 20.894531 -1.425781 19.28125 -0.65625 C 17.664062 0.101562 15.894531 0.484375 13.96875 0.484375 C 12.039062 0.484375 10.269531 0.101562 8.65625 -0.65625 C 7.039062 -1.425781 5.742188 -2.539062 4.765625 -4 C 3.796875 -5.457031 3.3125 -7.207031 3.3125 -9.25 L 3.3125 -27.390625 L 6.640625 -27.390625 L 6.640625 -9.25 C 6.640625 -7.820312 6.976562 -6.613281 7.65625 -5.625 C 8.332031 -4.644531 9.226562 -3.898438 10.34375 -3.390625 C 11.457031 -2.878906 12.664062 -2.625 13.96875 -2.625 C 15.269531 -2.625 16.476562 -2.878906 17.59375 -3.390625 C 18.707031 -3.898438 19.601562 -4.644531 20.28125 -5.625 C 20.957031 -6.613281 21.296875 -7.820312 21.296875 -9.25 Z M 21.296875 -27.390625 "/></g></g></g><g fill="#4b58ff" fill-opacity="1"><g transform="translate(103.107068, 36.056943)"><g><path d="M 1.8125 -24.453125 L 1.8125 -27.390625 L 22.375 -27.390625 L 22.375 -24.453125 L 13.75 -24.453125 L 13.75 0 L 10.4375 0 L 10.4375 -24.453125 Z M 1.8125 -24.453125 "/></g></g></g><g fill="#4b58ff" fill-opacity="1"><g transform="translate(151.8058, 36.056943)"><g><path d="M 26.4375 -13.703125 C 26.4375 -10.804688 25.910156 -8.304688 24.859375 -6.203125 C 23.816406 -4.097656 22.382812 -2.472656 20.5625 -1.328125 C 18.75 -0.191406 16.675781 0.375 14.34375 0.375 C 12.007812 0.375 9.929688 -0.191406 8.109375 -1.328125 C 6.285156 -2.472656 4.851562 -4.097656 3.8125 -6.203125 C 2.769531 -8.304688 2.25 -10.804688 2.25 -13.703125 C 2.25 -16.585938 2.769531 -19.082031 3.8125 -21.1875 C 4.851562 -23.289062 6.285156 -24.910156 8.109375 -26.046875 C 9.929688 -27.191406 12.007812 -27.765625 14.34375 -27.765625 C 16.675781 -27.765625 18.75 -27.191406 20.5625 -26.046875 C 22.382812 -24.910156 23.816406 -23.289062 24.859375 -21.1875 C 25.910156 -19.082031 26.4375 -16.585938 26.4375 -13.703125 Z M 23.21875 -13.703125 C 23.21875 -16.066406 22.820312 -18.066406 22.03125 -19.703125 C 21.25 -21.335938 20.1875 -22.570312 18.84375 -23.40625 C 17.5 -24.25 16 -24.671875 14.34375 -24.671875 C 12.6875 -24.671875 11.1875 -24.25 9.84375 -23.40625 C 8.5 -22.570312 7.429688 -21.335938 6.640625 -19.703125 C 5.847656 -18.066406 5.453125 -16.066406 5.453125 -13.703125 C 5.453125 -11.328125 5.847656 -9.320312 6.640625 -7.6875 C 7.429688 -6.0625 8.5 -4.828125 9.84375 -3.984375 C 11.1875 -3.148438 12.6875 -2.734375 14.34375 -2.734375 C 16 -2.734375 17.5 -3.148438 18.84375 -3.984375 C 20.1875 -4.828125 21.25 -6.0625 22.03125 -7.6875 C 22.820312 -9.320312 23.21875 -11.328125 23.21875 -13.703125 Z M 23.21875 -13.703125 "/></g></g></g><g fill="#4b58ff" fill-opacity="1"><g transform="translate(204.996538, 36.056943)"><g><path d="M 3.3125 0 L 3.3125 -27.390625 L 12.578125 -27.390625 C 14.710938 -27.390625 16.46875 -27.023438 17.84375 -26.296875 C 19.21875 -25.578125 20.234375 -24.582031 20.890625 -23.3125 C 21.554688 -22.050781 21.890625 -20.613281 21.890625 -19 C 21.890625 -17.175781 21.472656 -15.585938 20.640625 -14.234375 C 19.804688 -12.890625 18.515625 -11.914062 16.765625 -11.3125 L 22.953125 0 L 19.109375 0 L 13.328125 -10.71875 C 13.097656 -10.707031 12.863281 -10.703125 12.625 -10.703125 L 6.640625 -10.703125 L 6.640625 0 Z M 6.640625 -13.703125 L 12.515625 -13.703125 C 14.710938 -13.703125 16.28125 -14.171875 17.21875 -15.109375 C 18.15625 -16.054688 18.625 -17.351562 18.625 -19 C 18.625 -20.644531 18.148438 -21.960938 17.203125 -22.953125 C 16.265625 -23.953125 14.6875 -24.453125 12.46875 -24.453125 L 6.640625 -24.453125 Z M 6.640625 -13.703125 "/></g></g></g><g fill="#4b58ff" fill-opacity="1"><g transform="translate(253.588321, 36.056943)"><g><path d="M 6.640625 -27.390625 L 6.640625 0 L 3.3125 0 L 3.3125 -27.390625 Z M 6.640625 -27.390625 "/></g></g></g><g fill="#4b58ff" fill-opacity="1"><g transform="translate(288.062452, 36.056943)"><g><path d="M 25.046875 -27.390625 L 25.046875 0 L 21.828125 0 L 6.90625 -21.515625 L 6.640625 -21.515625 L 6.640625 0 L 3.3125 0 L 3.3125 -27.390625 L 6.53125 -27.390625 L 21.515625 -5.828125 L 21.78125 -5.828125 L 21.78125 -27.390625 Z M 25.046875 -27.390625 "/></g></g></g><g fill="#4b58ff" fill-opacity="1"><g transform="translate(340.932317, 36.056943)"><g><path d="M 22.046875 -18.84375 C 21.460938 -20.632812 20.507812 -22.050781 19.1875 -23.09375 C 17.863281 -24.144531 16.210938 -24.671875 14.234375 -24.671875 C 12.609375 -24.671875 11.128906 -24.25 9.796875 -23.40625 C 8.472656 -22.570312 7.414062 -21.335938 6.625 -19.703125 C 5.84375 -18.066406 5.453125 -16.066406 5.453125 -13.703125 C 5.453125 -11.328125 5.847656 -9.320312 6.640625 -7.6875 C 7.441406 -6.0625 8.519531 -4.828125 9.875 -3.984375 C 11.226562 -3.148438 12.753906 -2.734375 14.453125 -2.734375 C 15.992188 -2.734375 17.359375 -3.0625 18.546875 -3.71875 C 19.734375 -4.375 20.664062 -5.300781 21.34375 -6.5 C 22.03125 -7.695312 22.390625 -9.113281 22.421875 -10.75 L 15.203125 -10.75 L 15.203125 -13.703125 L 25.625 -13.703125 L 25.625 -10.75 C 25.625 -8.5 25.144531 -6.539062 24.1875 -4.875 C 23.226562 -3.207031 21.910156 -1.914062 20.234375 -1 C 18.554688 -0.0820312 16.628906 0.375 14.453125 0.375 C 12.023438 0.375 9.894531 -0.191406 8.0625 -1.328125 C 6.226562 -2.472656 4.800781 -4.097656 3.78125 -6.203125 C 2.757812 -8.304688 2.25 -10.804688 2.25 -13.703125 C 2.25 -16.585938 2.757812 -19.082031 3.78125 -21.1875 C 4.800781 -23.289062 6.210938 -24.910156 8.015625 -26.046875 C 9.828125 -27.191406 11.898438 -27.765625 14.234375 -27.765625 C 16.160156 -27.765625 17.90625 -27.390625 19.46875 -26.640625 C 21.039062 -25.890625 22.347656 -24.84375 23.390625 -23.5 C 24.441406 -22.15625 25.132812 -20.601562 25.46875 -18.84375 Z M 22.046875 -18.84375 "/></g></g></g></g></g></svg>
